<svg width="127" height="24" viewBox="0 0 127 24" fill="none" xmlns="http://www.w3.org/2000/svg">
<path d="M29.2187 11.5445V0.184064C29.2187 0.00883952 28.9997 -0.0641712 28.8829 0.0672473L16.4711 15.5746C16.3689 15.6914 16.4565 15.8813 16.6171 15.8813H25.5828C25.831 15.8813 26.0501 15.7645 26.1961 15.5746L29.0289 12.0409C29.1457 11.9095 29.2187 11.7343 29.2187 11.5445ZM0.189826 12.0555L9.50593 23.708C9.65195 23.8978 9.88559 24 10.1338 24H19.0995C19.2601 24 19.3477 23.8248 19.2455 23.708L0.335846 0.0818502C0.21903 -0.0495682 0 0.0234425 0 0.198667V11.5591C0.014602 11.7343 0.0730096 11.9095 0.189826 12.0555Z" fill="#FF4655"/>
<path d="M48.1707 20L45.6987 3.2H48.9387L50.6427 15.152L52.3467 3.2H55.5867L53.1147 20H48.1707ZM57.7549 20L59.7469 6.392H59.2429L59.5789 3.2H65.1709L67.6429 20H64.4029L64.0429 17.6H61.3549L60.9949 20H57.7549ZM61.8109 14.408H63.5869L62.6989 8.408L61.8109 14.408ZM71.4625 20.024V6.416H71.0065L71.3425 3.224H74.7265V16.808H79.3105L79.1185 20H74.7265V20.024H71.4625ZM90.6323 16.664C90.6323 17.88 90.3603 18.76 89.8163 19.304C89.2883 19.832 88.4083 20.096 87.1763 20.096H86.1203C84.8883 20.096 84.0003 19.832 83.4563 19.304C82.9283 18.76 82.6643 17.88 82.6643 16.664V6.536C82.6643 5.304 82.9283 4.424 83.4563 3.896C84.0003 3.368 84.8883 3.104 86.1203 3.104H87.1763C88.4083 3.104 89.2883 3.368 89.8163 3.896C90.3603 4.424 90.6323 5.304 90.6323 6.536V16.664ZM86.0483 6.296C85.9683 6.296 85.9283 6.336 85.9283 6.416V16.784C85.9283 16.864 85.9683 16.904 86.0483 16.904H87.2483C87.3283 16.904 87.3683 16.864 87.3683 16.784V6.416C87.3683 6.336 87.3283 6.296 87.2483 6.296H86.0483ZM102.301 16.568C102.301 17.784 102.029 18.664 101.485 19.208C100.957 19.736 100.077 20 98.8448 20H94.3328V6.392H93.8768L94.2128 3.2H98.8448C100.077 3.2 100.957 3.464 101.485 3.992C102.029 4.52 102.301 5.4 102.301 6.632V16.568ZM98.9168 16.808C98.9968 16.808 99.0368 16.768 99.0368 16.688V6.512C99.0368 6.432 98.9968 6.392 98.9168 6.392H97.5968V16.808H98.9168ZM105.873 20V6.392H105.417L105.753 3.2H112.617L112.425 6.392H109.137V9.992H112.089L111.897 13.184H109.137V16.808H112.617L112.425 20H105.873ZM115.974 20L118.254 11.6L115.974 3.2H119.214L120.414 8.888L121.59 3.2H124.83L122.55 11.6L124.83 20H121.59L120.414 14.312L119.214 20H115.974Z" fill="#ECE8E1"/>
</svg>
